<mxfile host="Electron" agent="Mozilla/5.0 (Windows NT 10.0; Win64; x64) AppleWebKit/537.36 (KHTML, like Gecko) draw.io/24.7.17 Chrome/128.0.6613.36 Electron/32.0.1 Safari/537.36" version="24.7.17">
  <diagram name="Страница — 1" id="47gJzHtbE83eCoeO8NE9">
    <mxGraphModel dx="1434" dy="844" grid="1" gridSize="10" guides="1" tooltips="1" connect="1" arrows="1" fold="1" page="1" pageScale="1" pageWidth="1169" pageHeight="1654" math="0" shadow="0">
      <root>
        <mxCell id="0" />
        <mxCell id="1" parent="0" />
        <mxCell id="l1bADBTOzbrRwx7fKxel-5" value="Преподаватель" style="swimlane;whiteSpace=wrap;html=1;" vertex="1" parent="1">
          <mxGeometry x="190" y="110" width="200" height="730" as="geometry" />
        </mxCell>
        <mxCell id="l1bADBTOzbrRwx7fKxel-6" value="Авторизация в&lt;div&gt;ЭИОС&lt;/div&gt;" style="rounded=1;whiteSpace=wrap;html=1;" vertex="1" parent="l1bADBTOzbrRwx7fKxel-5">
          <mxGeometry x="40" y="45" width="120" height="60" as="geometry" />
        </mxCell>
        <mxCell id="l1bADBTOzbrRwx7fKxel-7" value="Проставление баллов за итоговую аттестацию" style="rounded=1;whiteSpace=wrap;html=1;" vertex="1" parent="l1bADBTOzbrRwx7fKxel-5">
          <mxGeometry x="40" y="200" width="120" height="60" as="geometry" />
        </mxCell>
        <mxCell id="l1bADBTOzbrRwx7fKxel-8" value="Сохранение баллов за аттестацию" style="rounded=1;whiteSpace=wrap;html=1;" vertex="1" parent="l1bADBTOzbrRwx7fKxel-5">
          <mxGeometry x="40" y="350" width="120" height="60" as="geometry" />
        </mxCell>
        <mxCell id="l1bADBTOzbrRwx7fKxel-31" value="" style="endArrow=classic;html=1;rounded=0;exitX=0.5;exitY=1;exitDx=0;exitDy=0;entryX=0.5;entryY=0;entryDx=0;entryDy=0;" edge="1" parent="l1bADBTOzbrRwx7fKxel-5" source="l1bADBTOzbrRwx7fKxel-7" target="l1bADBTOzbrRwx7fKxel-8">
          <mxGeometry width="50" height="50" relative="1" as="geometry">
            <mxPoint x="70" y="340" as="sourcePoint" />
            <mxPoint x="120" y="290" as="targetPoint" />
          </mxGeometry>
        </mxCell>
        <mxCell id="l1bADBTOzbrRwx7fKxel-10" value="ЭИОС" style="swimlane;whiteSpace=wrap;html=1;" vertex="1" parent="1">
          <mxGeometry x="390" y="110" width="340" height="730" as="geometry" />
        </mxCell>
        <mxCell id="l1bADBTOzbrRwx7fKxel-11" value="Проверка прав доступа" style="rounded=1;whiteSpace=wrap;html=1;" vertex="1" parent="l1bADBTOzbrRwx7fKxel-10">
          <mxGeometry x="110" y="40" width="120" height="60" as="geometry" />
        </mxCell>
        <mxCell id="l1bADBTOzbrRwx7fKxel-12" value="&#xa;&lt;span style=&quot;color: rgb(240, 240, 240); font-family: Helvetica; font-size: 12px; font-style: normal; font-variant-ligatures: normal; font-variant-caps: normal; font-weight: 400; letter-spacing: normal; orphans: 2; text-align: center; text-indent: 0px; text-transform: none; widows: 2; word-spacing: 0px; -webkit-text-stroke-width: 0px; white-space: normal; background-color: rgb(27, 29, 30); text-decoration-thickness: initial; text-decoration-style: initial; text-decoration-color: initial; display: inline !important; float: none;&quot;&gt;Сохранение баллов за аттестацию&lt;/span&gt;&#xa;&#xa;" style="rounded=1;whiteSpace=wrap;html=1;" vertex="1" parent="l1bADBTOzbrRwx7fKxel-10">
          <mxGeometry x="110" y="130" width="120" height="60" as="geometry" />
        </mxCell>
        <mxCell id="l1bADBTOzbrRwx7fKxel-13" value="Валидация данных" style="rounded=1;whiteSpace=wrap;html=1;" vertex="1" parent="l1bADBTOzbrRwx7fKxel-10">
          <mxGeometry x="110" y="210" width="120" height="60" as="geometry" />
        </mxCell>
        <mxCell id="l1bADBTOzbrRwx7fKxel-14" value="Появление данных в системе и отправка уведомлений" style="rounded=1;whiteSpace=wrap;html=1;" vertex="1" parent="l1bADBTOzbrRwx7fKxel-10">
          <mxGeometry x="210" y="620" width="120" height="60" as="geometry" />
        </mxCell>
        <mxCell id="l1bADBTOzbrRwx7fKxel-15" value="" style="endArrow=classic;html=1;rounded=0;exitX=0.5;exitY=1;exitDx=0;exitDy=0;entryX=0.5;entryY=0;entryDx=0;entryDy=0;" edge="1" parent="l1bADBTOzbrRwx7fKxel-10" source="l1bADBTOzbrRwx7fKxel-12" target="l1bADBTOzbrRwx7fKxel-13">
          <mxGeometry width="50" height="50" relative="1" as="geometry">
            <mxPoint x="-40" y="230" as="sourcePoint" />
            <mxPoint x="10" y="180" as="targetPoint" />
          </mxGeometry>
        </mxCell>
        <mxCell id="l1bADBTOzbrRwx7fKxel-33" value="Данные валидны?" style="rhombus;whiteSpace=wrap;html=1;" vertex="1" parent="l1bADBTOzbrRwx7fKxel-10">
          <mxGeometry x="100" y="310" width="140" height="80" as="geometry" />
        </mxCell>
        <mxCell id="l1bADBTOzbrRwx7fKxel-39" value="" style="edgeStyle=elbowEdgeStyle;elbow=vertical;endArrow=classic;html=1;curved=0;rounded=0;endSize=8;startSize=8;entryX=0.5;entryY=0;entryDx=0;entryDy=0;" edge="1" parent="l1bADBTOzbrRwx7fKxel-10" target="l1bADBTOzbrRwx7fKxel-14">
          <mxGeometry width="50" height="50" relative="1" as="geometry">
            <mxPoint x="240" y="350" as="sourcePoint" />
            <mxPoint x="300" y="350" as="targetPoint" />
            <Array as="points">
              <mxPoint x="270" y="350" />
            </Array>
          </mxGeometry>
        </mxCell>
        <mxCell id="l1bADBTOzbrRwx7fKxel-40" value="Да" style="edgeLabel;html=1;align=center;verticalAlign=middle;resizable=0;points=[];" vertex="1" connectable="0" parent="l1bADBTOzbrRwx7fKxel-39">
          <mxGeometry x="-0.1" y="-1" relative="1" as="geometry">
            <mxPoint x="-19" y="-115" as="offset" />
          </mxGeometry>
        </mxCell>
        <mxCell id="l1bADBTOzbrRwx7fKxel-41" value="" style="endArrow=classic;html=1;rounded=0;entryX=0.5;entryY=0;entryDx=0;entryDy=0;exitX=0.5;exitY=1;exitDx=0;exitDy=0;" edge="1" parent="l1bADBTOzbrRwx7fKxel-10" source="l1bADBTOzbrRwx7fKxel-13" target="l1bADBTOzbrRwx7fKxel-33">
          <mxGeometry width="50" height="50" relative="1" as="geometry">
            <mxPoint x="70" y="330" as="sourcePoint" />
            <mxPoint x="120" y="280" as="targetPoint" />
          </mxGeometry>
        </mxCell>
        <mxCell id="l1bADBTOzbrRwx7fKxel-42" value="Оповещение о необходимости исправить данные" style="rounded=1;whiteSpace=wrap;html=1;" vertex="1" parent="l1bADBTOzbrRwx7fKxel-10">
          <mxGeometry x="10" y="420" width="120" height="60" as="geometry" />
        </mxCell>
        <mxCell id="l1bADBTOzbrRwx7fKxel-43" value="Исправление данных" style="rounded=1;whiteSpace=wrap;html=1;" vertex="1" parent="l1bADBTOzbrRwx7fKxel-10">
          <mxGeometry x="10" y="520" width="120" height="60" as="geometry" />
        </mxCell>
        <mxCell id="l1bADBTOzbrRwx7fKxel-44" value="сохранение данных" style="rounded=1;whiteSpace=wrap;html=1;" vertex="1" parent="l1bADBTOzbrRwx7fKxel-10">
          <mxGeometry x="10" y="620" width="120" height="60" as="geometry" />
        </mxCell>
        <mxCell id="l1bADBTOzbrRwx7fKxel-45" value="" style="edgeStyle=elbowEdgeStyle;elbow=vertical;endArrow=classic;html=1;curved=0;rounded=0;endSize=8;startSize=8;exitX=0;exitY=0.5;exitDx=0;exitDy=0;entryX=0.5;entryY=0;entryDx=0;entryDy=0;" edge="1" parent="l1bADBTOzbrRwx7fKxel-10" source="l1bADBTOzbrRwx7fKxel-33" target="l1bADBTOzbrRwx7fKxel-42">
          <mxGeometry width="50" height="50" relative="1" as="geometry">
            <mxPoint x="30" y="350" as="sourcePoint" />
            <mxPoint x="80" y="300" as="targetPoint" />
            <Array as="points">
              <mxPoint x="80" y="350" />
            </Array>
          </mxGeometry>
        </mxCell>
        <mxCell id="l1bADBTOzbrRwx7fKxel-46" value="" style="endArrow=classic;html=1;rounded=0;exitX=0.5;exitY=1;exitDx=0;exitDy=0;entryX=0.5;entryY=0;entryDx=0;entryDy=0;" edge="1" parent="l1bADBTOzbrRwx7fKxel-10" source="l1bADBTOzbrRwx7fKxel-42" target="l1bADBTOzbrRwx7fKxel-43">
          <mxGeometry width="50" height="50" relative="1" as="geometry">
            <mxPoint x="-90" y="570" as="sourcePoint" />
            <mxPoint x="-40" y="520" as="targetPoint" />
          </mxGeometry>
        </mxCell>
        <mxCell id="l1bADBTOzbrRwx7fKxel-47" value="" style="endArrow=classic;html=1;rounded=0;exitX=0.5;exitY=1;exitDx=0;exitDy=0;entryX=0.5;entryY=0;entryDx=0;entryDy=0;" edge="1" parent="l1bADBTOzbrRwx7fKxel-10" source="l1bADBTOzbrRwx7fKxel-43" target="l1bADBTOzbrRwx7fKxel-44">
          <mxGeometry width="50" height="50" relative="1" as="geometry">
            <mxPoint x="-100" y="630" as="sourcePoint" />
            <mxPoint x="-50" y="580" as="targetPoint" />
          </mxGeometry>
        </mxCell>
        <mxCell id="l1bADBTOzbrRwx7fKxel-48" value="" style="edgeStyle=elbowEdgeStyle;elbow=horizontal;endArrow=classic;html=1;curved=0;rounded=0;endSize=8;startSize=8;exitX=1;exitY=0.5;exitDx=0;exitDy=0;entryX=0.5;entryY=1;entryDx=0;entryDy=0;" edge="1" parent="l1bADBTOzbrRwx7fKxel-10" source="l1bADBTOzbrRwx7fKxel-44" target="l1bADBTOzbrRwx7fKxel-33">
          <mxGeometry width="50" height="50" relative="1" as="geometry">
            <mxPoint x="140" y="660" as="sourcePoint" />
            <mxPoint x="190" y="610" as="targetPoint" />
            <Array as="points">
              <mxPoint x="170" y="630" />
            </Array>
          </mxGeometry>
        </mxCell>
        <mxCell id="l1bADBTOzbrRwx7fKxel-19" value="" style="ellipse;html=1;shape=startState;fillColor=#000000;strokeColor=#ff0000;" vertex="1" parent="1">
          <mxGeometry x="70" y="170" width="30" height="30" as="geometry" />
        </mxCell>
        <mxCell id="l1bADBTOzbrRwx7fKxel-20" value="" style="edgeStyle=orthogonalEdgeStyle;html=1;verticalAlign=bottom;endArrow=open;endSize=8;strokeColor=#ff0000;rounded=0;" edge="1" parent="1" source="l1bADBTOzbrRwx7fKxel-19">
          <mxGeometry relative="1" as="geometry">
            <mxPoint x="230" y="185" as="targetPoint" />
          </mxGeometry>
        </mxCell>
        <mxCell id="l1bADBTOzbrRwx7fKxel-29" value="" style="endArrow=classic;html=1;rounded=0;exitX=1;exitY=0.5;exitDx=0;exitDy=0;entryX=0;entryY=0.5;entryDx=0;entryDy=0;" edge="1" parent="1" source="l1bADBTOzbrRwx7fKxel-6" target="l1bADBTOzbrRwx7fKxel-11">
          <mxGeometry width="50" height="50" relative="1" as="geometry">
            <mxPoint x="400" y="220" as="sourcePoint" />
            <mxPoint x="450" y="170" as="targetPoint" />
          </mxGeometry>
        </mxCell>
        <mxCell id="l1bADBTOzbrRwx7fKxel-30" value="" style="endArrow=classic;html=1;rounded=0;exitX=0.5;exitY=1;exitDx=0;exitDy=0;entryX=0.5;entryY=0;entryDx=0;entryDy=0;" edge="1" parent="1" source="l1bADBTOzbrRwx7fKxel-11" target="l1bADBTOzbrRwx7fKxel-7">
          <mxGeometry width="50" height="50" relative="1" as="geometry">
            <mxPoint x="370" y="270" as="sourcePoint" />
            <mxPoint x="420" y="220" as="targetPoint" />
          </mxGeometry>
        </mxCell>
        <mxCell id="l1bADBTOzbrRwx7fKxel-32" value="" style="endArrow=classic;html=1;rounded=0;exitX=1;exitY=0.5;exitDx=0;exitDy=0;entryX=0;entryY=0.5;entryDx=0;entryDy=0;" edge="1" parent="1" source="l1bADBTOzbrRwx7fKxel-8" target="l1bADBTOzbrRwx7fKxel-12">
          <mxGeometry width="50" height="50" relative="1" as="geometry">
            <mxPoint x="390" y="480" as="sourcePoint" />
            <mxPoint x="440" y="430" as="targetPoint" />
          </mxGeometry>
        </mxCell>
        <mxCell id="l1bADBTOzbrRwx7fKxel-49" value="Vertical Container" style="swimlane;whiteSpace=wrap;html=1;" vertex="1" parent="1">
          <mxGeometry x="730" y="110" width="200" height="730" as="geometry" />
        </mxCell>
        <mxCell id="l1bADBTOzbrRwx7fKxel-50" value="Просмотр баллов" style="rounded=1;whiteSpace=wrap;html=1;" vertex="1" parent="l1bADBTOzbrRwx7fKxel-49">
          <mxGeometry x="40" y="310" width="120" height="60" as="geometry" />
        </mxCell>
        <mxCell id="l1bADBTOzbrRwx7fKxel-51" value="" style="endArrow=classic;html=1;rounded=0;exitX=1;exitY=0.5;exitDx=0;exitDy=0;entryX=0;entryY=0.5;entryDx=0;entryDy=0;" edge="1" parent="1" source="l1bADBTOzbrRwx7fKxel-14" target="l1bADBTOzbrRwx7fKxel-50">
          <mxGeometry width="50" height="50" relative="1" as="geometry">
            <mxPoint x="780" y="720" as="sourcePoint" />
            <mxPoint x="830" y="670" as="targetPoint" />
          </mxGeometry>
        </mxCell>
        <mxCell id="l1bADBTOzbrRwx7fKxel-52" value="" style="ellipse;html=1;shape=endState;fillColor=#000000;strokeColor=#ff0000;" vertex="1" parent="1">
          <mxGeometry x="545" y="880" width="30" height="30" as="geometry" />
        </mxCell>
        <mxCell id="l1bADBTOzbrRwx7fKxel-53" value="" style="endArrow=classic;html=1;rounded=0;exitX=0.5;exitY=1;exitDx=0;exitDy=0;entryX=1;entryY=0;entryDx=0;entryDy=0;" edge="1" parent="1" source="l1bADBTOzbrRwx7fKxel-14" target="l1bADBTOzbrRwx7fKxel-52">
          <mxGeometry width="50" height="50" relative="1" as="geometry">
            <mxPoint x="500" y="850" as="sourcePoint" />
            <mxPoint x="550" y="800" as="targetPoint" />
          </mxGeometry>
        </mxCell>
      </root>
    </mxGraphModel>
  </diagram>
</mxfile>
